<?xml version="1.0" standalone="no"?>
<!DOCTYPE svg PUBLIC "-//W3C//DTD SVG 20010904//EN"
 "http://www.w3.org/TR/2001/REC-SVG-20010904/DTD/svg10.dtd">
<svg version="1.0" xmlns="http://www.w3.org/2000/svg"
 width="1024.000000pt" height="1024.000000pt" viewBox="0 0 1024.000000 1024.000000"
 preserveAspectRatio="xMidYMid meet">

<g transform="translate(0.000000,1024.000000) scale(0.100000,-0.100000)"
fill="#000000" stroke="none">
<path d="M0 5120 l0 -5120 5120 0 5120 0 0 5120 0 5120 -5120 0 -5120 0 0
-5120z m5294 3693 c136 -118 252 -223 635 -577 448 -414 777 -773 1031 -1126
401 -557 666 -1101 774 -1592 44 -197 57 -305 63 -518 6 -230 -9 -414 -52
-630 -32 -163 -103 -383 -121 -376 -8 3 -13 2 -13 -2 4 -22 -5 -32 -36 -43
-19 -7 -35 -17 -35 -21 0 -4 -14 -8 -31 -8 -22 0 -32 -5 -36 -20 -3 -13 -14
-20 -29 -20 -37 0 -72 -17 -79 -40 -4 -12 -9 -20 -11 -17 -2 2 5 25 17 51 11
26 19 50 16 52 -2 2 -17 -26 -34 -63 -91 -206 -334 -522 -548 -714 -93 -83
-263 -205 -390 -280 -131 -77 -306 -153 -505 -219 -209 -70 -497 -137 -514
-120 -16 16 6 27 83 40 161 27 466 117 621 182 312 132 556 295 783 522 296
296 483 622 577 1008 56 227 65 311 65 593 0 257 -8 348 -46 488 l-10 37 -170
0 -171 0 -311 -303 c-172 -166 -402 -387 -512 -492 -110 -104 -279 -266 -376
-360 -233 -225 -393 -372 -346 -316 74 89 34 61 -70 -48 -108 -115 -122 -121
-123 -60 0 22 104 128 583 595 320 313 638 625 707 694 83 83 93 95 30 35
-180 -171 -203 -190 -191 -167 7 12 23 29 36 38 14 9 25 23 25 31 0 30 85 134
228 278 138 139 217 210 224 203 2 -1 14 5 28 15 13 9 32 17 42 17 10 0 18 3
18 8 0 4 15 12 33 17 l33 11 -20 -32 c-12 -18 -30 -37 -41 -42 -19 -9 -19 -9
0 -14 30 -7 77 9 106 36 30 27 39 25 39 -11 0 -23 2 -23 85 -21 47 2 85 6 85
9 0 28 -57 217 -95 314 -160 409 -435 858 -813 1330 -97 121 -261 291 -226
233 5 -7 2 -9 -7 -6 -36 13 -109 -28 -196 -112 -122 -117 -349 -336 -535 -517
-86 -84 -163 -153 -172 -153 -13 0 -16 12 -16 58 l0 57 152 148 153 149 -138
-129 c-76 -70 -142 -129 -146 -131 -4 -1 -4 31 0 71 7 69 24 117 41 117 5 0 8
7 8 15 0 8 7 15 15 15 8 0 15 5 15 11 0 7 26 37 58 68 32 31 73 76 92 101 18
25 52 65 75 90 197 210 245 270 245 303 0 17 15 7 75 -53 65 -64 75 -71 75
-51 0 35 48 94 71 88 16 -4 17 -2 8 16 -16 32 -508 520 -682 678 -82 74 -182
165 -224 202 -41 37 -79 67 -84 65 -21 -8 -472 -430 -727 -683 -282 -278 -450
-460 -638 -691 -125 -152 -118 -143 -274 -369 -197 -284 -357 -561 -449 -777
-53 -124 -134 -353 -150 -426 l-9 -43 81 3 c77 3 81 4 87 28 8 29 25 28 58 -3
16 -15 41 -23 82 -27 32 -3 56 -2 54 2 -9 14 10 9 59 -17 65 -32 584 -545 553
-545 -6 0 -81 66 -238 211 -62 57 208 -217 600 -610 l713 -714 -3 -55 -3 -55
-476 469 c-261 258 -603 591 -759 739 -156 149 -329 314 -384 367 l-101 98
-176 0 -177 0 -21 -112 c-44 -237 -51 -548 -15 -728 24 -121 12 -110 126 -110
l101 0 68 -60 c51 -46 75 -60 98 -60 44 0 94 -47 94 -89 0 -99 -152 -121 -183
-26 -13 39 -68 98 -113 121 -18 10 -50 14 -91 12 l-63 -3 13 -65 c39 -190 151
-451 274 -640 364 -555 906 -903 1655 -1060 132 -28 135 -29 135 -46 0 -18 3
-19 -210 32 -483 115 -845 283 -1139 529 -94 78 -267 255 -347 356 -70 88
-201 292 -250 388 -18 36 -33 62 -34 58 0 -4 7 -22 16 -38 20 -40 14 -44 -27
-20 -19 11 -52 30 -74 42 -22 12 -54 34 -71 51 -17 16 -38 28 -45 27 -31 -7
-66 46 -103 156 -80 243 -106 407 -113 711 -6 245 2 365 38 573 64 368 210
743 472 1211 54 96 286 440 385 570 284 373 600 711 1112 1192 142 133 581
527 589 528 2 0 49 -39 105 -87z m-29 -553 c8 -15 69 -81 135 -146 66 -65 119
-121 118 -125 -2 -4 -60 -66 -130 -138 l-128 -131 0 -66 0 -66 76 73 c52 51
74 79 70 91 -5 23 149 168 179 168 11 -1 36 -14 55 -31 l35 -29 -170 -173
c-94 -94 -187 -190 -208 -213 l-38 -41 -6 -148 c-5 -131 -4 -147 10 -144 9 2
139 124 290 272 152 147 279 267 284 267 4 0 21 -11 38 -24 l30 -24 -46 -49
c-89 -95 -588 -583 -596 -583 -8 0 -7 -1840 2 -1848 2 -2 63 54 137 125 252
244 1243 1211 1288 1257 24 25 52 46 61 46 10 0 27 -13 38 -28 l20 -29 -197
-194 c-189 -187 -624 -609 -1123 -1089 l-234 -225 -3 -852 c-2 -573 0 -853 7
-853 20 0 689 645 1103 1064 166 167 191 189 218 188 55 -1 78 -38 42 -64 -10
-7 -44 -35 -76 -63 -31 -27 -61 -50 -66 -50 -4 0 -12 -4 -17 -9 -5 -5 -3 -6 5
-2 27 16 9 -9 -55 -74 -37 -38 -70 -67 -74 -65 -4 3 -13 -3 -20 -13 -13 -16
-12 -16 6 -2 15 11 14 8 -4 -12 -13 -15 -27 -25 -31 -23 -4 2 -24 -15 -46 -38
l-39 -42 40 35 40 35 -34 -37 c-21 -23 -39 -34 -49 -30 -11 4 -14 1 -10 -10 4
-10 -35 -56 -123 -144 -72 -71 -127 -121 -123 -111 12 33 -12 15 -125 -93 -63
-61 -117 -110 -120 -110 -9 -1 -261 -252 -363 -361 l-88 -94 0 -202 c0 -112 2
-203 4 -203 3 0 67 61 144 135 l140 136 4 69 c3 59 8 74 34 107 44 55 98 83
160 83 159 0 257 -139 193 -276 -25 -51 -66 -87 -128 -109 -65 -23 -91 -19
-158 25 l-61 39 -164 -165 -163 -165 -6 -92 c-5 -87 -5 -88 -7 -25 l-2 67 -25
-25 c-14 -14 -26 -35 -26 -47 -1 -17 -3 -15 -8 8 -10 45 -21 -125 -21 -332 0
-109 -4 -173 -10 -173 -6 0 -10 111 -10 314 l0 314 -166 158 c-142 136 -168
156 -182 146 -122 -86 -243 -78 -311 21 -79 116 -60 222 51 287 45 27 61 30
109 27 113 -7 193 -81 196 -184 l1 -55 151 -145 151 -145 0 1309 0 1309 -172
169 c-95 93 -267 262 -383 375 -115 113 -258 251 -317 306 l-107 101 -73 -5
c-62 -4 -81 -1 -116 17 -75 38 -132 143 -116 214 23 108 124 197 224 197 96 0
189 -78 211 -175 13 -59 9 -85 -22 -164 l-14 -34 435 -428 c239 -236 439 -429
443 -429 4 0 6 425 5 944 l-3 945 -136 138 c-74 76 -168 172 -208 214 l-72 77
38 31 c21 17 40 31 43 31 5 0 125 -122 233 -238 16 -18 23 -20 25 -9 3 16 52
11 64 -7 4 -6 8 1 8 15 0 21 -30 58 -135 165 -74 76 -135 141 -135 144 0 3 32
34 71 68 86 76 199 197 199 215 0 6 15 22 32 34 l31 22 29 -20 c15 -11 35 -33
43 -49z m-571 -465 c3 -8 2 -15 -2 -15 -4 0 -6 -24 -4 -52 2 -41 0 -49 -8 -38
-9 13 -11 12 -8 -5 2 -13 16 -24 38 -31 19 -6 38 -20 43 -30 5 -11 26 -32 48
-49 72 -56 79 -62 79 -79 0 -9 6 -16 13 -16 32 0 97 -95 97 -141 l0 -31 -42
37 c-24 21 -119 110 -211 198 l-168 160 52 53 c58 58 64 62 73 39z m1080 -47
c20 -23 36 -44 36 -48 0 -3 -83 -89 -185 -189 -150 -149 -187 -181 -199 -172
-11 9 -15 9 -19 -1 -3 -7 -5 10 -5 37 1 47 1 48 8 15 5 -25 8 -28 9 -12 1 22
64 92 83 92 5 0 7 4 3 10 -3 5 9 17 27 26 40 20 47 27 124 129 68 88 82 129
56 159 -16 18 -16 18 5 8 12 -7 37 -31 57 -54z m-993 -279 l219 -211 0 -64 c0
-35 -3 -64 -6 -64 -3 0 -120 111 -260 247 l-254 247 27 28 c15 15 33 28 41 28
8 0 113 -95 233 -211z m-316 42 c22 -24 34 -41 28 -37 -7 4 -13 2 -13 -3 0 -6
5 -11 10 -11 6 0 10 -7 10 -15 0 -8 31 -48 68 -87 37 -40 88 -98 112 -128 25
-30 88 -99 140 -153 52 -54 101 -110 109 -124 7 -15 22 -35 31 -46 10 -10 20
-39 22 -65 3 -26 8 -56 13 -67 4 -11 -77 64 -182 168 -104 103 -191 187 -194
187 -2 0 83 -88 189 -195 l192 -196 0 -66 0 -66 -27 23 c-16 14 -127 121 -248
240 -121 118 -282 274 -357 347 -76 72 -138 137 -138 145 0 7 16 24 35 37 41
28 30 33 150 -79 57 -52 53 -48 -17 24 -57 57 -85 93 -80 101 9 16 104 117
106 113 0 -2 19 -23 41 -47z m-267 -258 c-2 -29 -14 -43 -37 -43 -7 0 -11 6
-8 14 3 8 3 16 1 19 -6 6 -59 -45 -59 -57 0 -5 -6 -11 -12 -13 -24 -8 -13 9
45 71 59 65 74 67 70 9z m2055 7 l45 -50 -196 -197 c-109 -108 -200 -196 -205
-195 -4 1 -6 -4 -5 -10 2 -7 -3 -12 -10 -10 -6 1 -11 -4 -10 -10 2 -7 -3 -12
-10 -10 -8 1 -11 -1 -8 -6 3 -5 -21 -33 -52 -63 -31 -30 -44 -39 -27 -21 16
17 25 32 19 32 -5 0 -20 -16 -34 -35 -28 -39 -35 -42 -44 -19 -3 8 -2 13 3 9
5 -3 12 8 16 24 4 17 48 74 110 142 58 63 132 143 165 179 138 150 202 248
171 258 -9 3 -9 7 0 18 17 21 23 18 72 -36z m-1987 -96 c62 -41 68 -122 13
-168 -50 -42 -135 -29 -173 26 -19 27 -21 88 -3 110 39 48 115 63 163 32z
m2085 -12 l30 -27 -33 -40 c-86 -103 -210 -232 -338 -350 -36 -33 -186 -177
-333 -320 -148 -143 -273 -262 -278 -264 -6 -2 -9 21 -7 58 l3 60 454 456
c249 250 457 455 462 455 5 0 23 -12 40 -28z m-2272 -9 c-8 -9 -16 -10 -22 -4
-13 13 0 31 19 24 11 -4 12 -8 3 -20z m-54 -53 c3 -6 -1 -13 -9 -16 -9 -3 -16
-13 -16 -22 0 -8 -3 -13 -6 -10 -3 4 -25 -15 -50 -40 -59 -63 -56 -45 7 34 51
64 62 73 74 54z m25 -36 c0 -8 -19 -13 -24 -6 -3 5 1 9 9 9 8 0 15 -2 15 -3z
m2422 -67 l21 -29 -44 -44 c-24 -24 -48 -44 -53 -44 -6 0 9 20 33 44 34 34 39
45 27 49 -9 4 -16 13 -16 22 0 9 -11 26 -25 39 -13 13 -22 26 -18 30 8 7 46
-27 75 -67z m-2591 -99 c9 -19 9 -21 -1 -11 -9 9 -19 9 -32 2 -18 -9 -18 -8
-8 10 14 27 26 27 41 -1z m2677 -22 l32 -44 -53 -60 c-28 -33 -63 -75 -75 -93
-21 -30 -23 -31 -17 -9 5 19 4 22 -4 10 -9 -13 -11 -13 -11 2 0 9 -15 29 -34
45 l-34 28 81 83 c45 45 82 82 83 82 0 0 15 -20 32 -44z m-2688 -102 c25 -25
36 -41 25 -36 -11 6 -40 32 -65 57 -25 26 -36 42 -25 36 11 -6 40 -32 65 -57z
m104 37 c14 -15 15 -21 4 -27 -7 -4 -10 -3 -5 1 4 5 0 17 -10 27 -9 10 -14 18
-11 18 3 0 13 -9 22 -19z m-108 -159 c-5 -5 -96 60 -96 69 0 4 -9 9 -19 12
-15 3 -18 11 -14 27 5 20 11 16 69 -41 35 -35 62 -65 60 -67z m2460 107 c88
-42 130 -121 122 -230 -9 -122 -141 -214 -261 -181 -35 10 -36 9 -144 -91 -59
-55 -225 -216 -368 -356 -143 -141 -266 -260 -272 -264 -10 -6 -13 6 -13 49
l0 57 278 272 c153 150 303 302 335 338 l57 65 -25 48 c-32 59 -32 114 -1 179
56 119 181 168 292 114z m312 2 c-6 -15 -157 -151 -168 -151 -6 0 26 36 72 80
76 72 105 94 96 71z m-1943 -505 c72 -71 125 -127 119 -125 -17 6 -504 483
-504 494 0 5 57 -47 128 -116 70 -69 186 -183 257 -253z m-965 78 c120 -123
121 -124 24 -33 -55 52 -124 112 -152 134 -28 22 -51 46 -52 53 0 22 46 -18
180 -154z m610 24 c0 -6 -6 -5 -15 2 -8 7 -15 14 -15 16 0 2 7 1 15 -2 8 -4
15 -11 15 -16z m-829 -109 l18 -26 -47 -1 c-35 -1 -42 1 -27 8 17 7 17 9 3 9
-10 1 -18 6 -18 12 0 5 -5 7 -11 3 -6 -3 -3 8 6 26 16 31 17 31 37 13 11 -10
28 -30 39 -44z m3429 8 c0 -2 -10 -12 -22 -23 l-23 -19 19 23 c18 21 26 27 26
19z m-3358 -83 c36 -19 79 -87 85 -134 3 -21 0 -54 -6 -73 -10 -30 -10 -40 5
-61 9 -15 26 -26 38 -27 l21 0 -22 -11 c-31 -15 -53 -3 -53 29 l0 27 -27 -26
c-41 -38 -66 -48 -118 -48 -61 0 -103 19 -143 64 -28 32 -32 44 -32 92 0 91
40 152 117 180 41 15 91 11 135 -12z m303 6 c10 -11 16 -20 13 -20 -3 0 -13 9
-23 20 -10 11 -16 20 -13 20 3 0 13 -9 23 -20z m3087 -6 c48 -25 81 -80 86
-143 5 -69 -12 -108 -65 -148 -32 -24 -45 -28 -104 -28 -75 0 -106 16 -146 75
-44 64 -24 176 41 225 57 43 125 50 188 19z m-2052 -149 c48 -53 46 -52 -23
15 -42 41 -77 76 -77 78 0 8 50 -39 100 -93z m-1014 -147 c27 -27 32 -37 17
-29 -13 6 -23 8 -23 4 0 -3 10 -18 23 -32 l22 -26 -28 24 c-15 14 -26 31 -25
39 2 8 -5 16 -15 18 -19 3 -47 22 -47 33 0 21 43 4 76 -31z m2801 -4 c-24 -21
-38 -24 -105 -24 l-77 0 -140 -137 -140 -138 145 148 145 148 60 -6 c53 -6 64
-4 95 18 43 30 55 24 17 -9z m-2922 -4 c-3 -5 -16 -10 -28 -9 -21 0 -21 1 -2
9 28 12 37 12 30 0z m215 -87 l45 -47 -50 44 c-27 24 -52 45 -54 47 -2 2 0 3
5 3 6 0 30 -21 54 -47z m3189 25 c-2 -2 -24 -21 -49 -43 l-45 -40 40 43 c21
23 43 42 49 42 5 0 7 -1 5 -2z m-3145 -108 c-3 -2 -26 18 -52 45 l-47 48 51
-44 c29 -24 50 -46 48 -49z m2716 67 c0 -1 -91 -92 -202 -202 -111 -110 -187
-182 -168 -160 74 90 370 379 370 362z m-3065 -67 c10 -11 16 -20 13 -20 -3 0
-13 9 -23 20 -10 11 -16 20 -13 20 3 0 13 -9 23 -20z m485 -97 c30 -32 42 -46
25 -32 -16 15 -42 37 -57 49 -24 20 -36 40 -25 40 1 0 27 -26 57 -57z m2710
-76 c0 -2 -12 -14 -27 -28 l-28 -24 24 28 c23 25 31 32 31 24z m-684 -47 c48
-30 78 -98 72 -165 -8 -94 -76 -155 -173 -155 -52 0 -77 10 -118 48 l-27 26
-118 -115 c-185 -180 -433 -409 -443 -409 -5 0 -9 21 -9 46 l0 47 193 186
c105 102 227 220 270 260 57 55 77 81 77 100 1 81 112 169 199 157 24 -3 58
-15 77 -26z m-2280 -12 l29 -33 -32 29 c-31 28 -38 36 -30 36 2 0 16 -15 33
-32z m424 17 c51 -26 83 -80 88 -146 4 -52 1 -65 -22 -100 -55 -82 -147 -104
-233 -54 -148 88 -84 313 90 315 26 0 61 -7 77 -15z m330 -15 c0 -5 -2 -10 -4
-10 -3 0 -8 5 -11 10 -3 6 -1 10 4 10 6 0 11 -4 11 -10z m-1330 -440 c46 -24
74 -55 99 -110 29 -64 27 -115 -10 -189 l-31 -62 169 -175 c92 -96 172 -182
178 -190 7 -9 6 -20 -1 -31 -23 -37 -45 -26 -148 74 -55 55 -143 138 -194 186
l-94 86 -44 -6 c-166 -22 -304 160 -235 313 24 52 93 111 145 123 52 12 120 4
166 -19z m3849 19 c107 -23 174 -104 175 -214 1 -48 -4 -69 -26 -106 -46 -78
-140 -126 -228 -116 l-47 6 -146 -137 c-81 -75 -165 -158 -188 -184 -41 -49
-73 -60 -97 -36 -29 29 -10 55 164 229 l177 177 -27 53 c-30 61 -35 145 -12
200 24 58 94 114 161 130 43 10 39 10 94 -2z m-2550 -367 l339 -339 2 -49 c1
-27 1 -53 1 -57 -1 -5 -53 42 -117 105 -135 131 -130 127 -169 157 -16 12 -59
50 -95 84 -321 302 -400 381 -400 398 0 22 30 37 72 38 23 1 83 -55 367 -337z
m1503 315 c12 -19 -24 -66 -117 -155 -49 -48 -204 -197 -343 -332 -223 -216
-289 -276 -269 -243 3 5 2 15 -4 23 -7 12 -9 10 -9 -8 0 -13 -4 -20 -10 -17
-5 3 -10 22 -10 42 0 33 21 56 343 374 340 336 342 338 377 332 19 -3 38 -11
42 -16z m-1732 -1005 l581 -579 -9 -49 c-6 -31 -10 -39 -11 -22 -1 21 -22 47
-83 105 -46 43 -237 231 -426 418 -188 187 -348 342 -354 344 -6 2 9 -21 33
-51 27 -34 49 -53 58 -50 10 4 13 1 8 -11 -4 -11 -1 -17 8 -17 8 0 26 -16 41
-35 14 -19 29 -33 33 -31 4 3 78 -66 165 -154 87 -87 154 -160 149 -163 -11
-7 -263 234 -263 251 0 7 -6 12 -14 12 -8 0 -17 9 -21 20 -3 11 -10 19 -14 17
-4 -1 -90 78 -191 176 -102 97 -179 177 -173 177 7 0 17 -8 22 -17 9 -16 10
-16 11 4 0 13 -8 24 -21 28 -11 4 -25 18 -31 31 -6 13 -15 24 -20 24 -5 0 -26
17 -47 38 -21 20 -51 47 -67 60 -28 22 -28 23 -10 37 11 8 30 15 43 15 16 0
177 -154 603 -578z m-276 -149 c401 -398 387 -382 384 -413 -4 -39 -41 -38
-86 1 -21 19 -28 30 -17 25 16 -6 14 -1 -9 23 -31 32 -49 35 -25 4 7 -10 -1
-5 -19 11 -17 16 -29 33 -26 37 4 7 -14 25 -155 154 -63 57 -159 149 -356 339
-87 84 -101 109 -72 128 40 25 59 9 381 -309z m2467 307 c28 -15 23 -34 -11
-47 -16 -6 -30 -18 -30 -27 0 -9 -6 -15 -12 -13 -7 1 -12 -4 -10 -10 1 -7 -4
-12 -10 -10 -7 1 -12 -4 -10 -10 1 -7 -3 -12 -10 -10 -7 1 -12 -3 -13 -10 0
-7 -8 -21 -17 -33 -10 -11 -15 -20 -11 -20 3 0 -2 -9 -12 -20 -9 -10 -20 -18
-24 -17 -3 1 -7 -2 -9 -8 -7 -21 -35 -44 -46 -38 -6 3 -8 2 -3 -2 10 -11 -33
-56 -46 -48 -6 3 -7 1 -3 -5 3 -6 -11 -20 -31 -33 -35 -21 -163 -140 -323
-301 -62 -63 -101 -91 -69 -51 9 11 3 9 -15 -5 -30 -23 -45 -17 -46 16 0 7 98
108 218 225 119 116 280 274 358 349 78 76 147 138 153 138 7 0 21 -5 32 -10z
m-3153 -47 c-10 -2 -26 -2 -35 0 -10 3 -2 5 17 5 19 0 27 -2 18 -5z m4158
-150 c-8 -15 -15 -22 -16 -15 0 14 22 53 28 47 2 -2 -3 -16 -12 -32z m-3623
-511 c180 -180 327 -334 327 -344 0 -24 -11 -48 -22 -48 -6 0 -8 6 -5 14 3 8
-22 38 -63 75 -77 68 -102 80 -49 24 l34 -38 -37 34 c-21 19 -35 38 -32 42 2
4 -3 17 -13 29 -19 22 -39 28 -27 8 5 -9 3 -9 -9 1 -9 7 -15 17 -12 21 2 4 -5
16 -18 26 -21 19 -21 19 -7 -1 8 -11 -7 0 -33 25 -26 24 -47 46 -47 49 0 3 16
-10 35 -29 19 -19 35 -29 35 -24 0 10 -86 95 -328 328 -85 81 -118 107 -132
103 -23 -6 -25 2 -7 25 17 22 38 27 62 16 11 -6 167 -157 348 -336z m2801 316
c8 -13 4 -22 -17 -44 -15 -15 -27 -31 -27 -37 0 -6 -6 -2 -14 9 -8 10 -18 16
-22 11 -4 -4 -1 -7 6 -7 9 0 7 -7 -6 -22 -19 -22 -19 -23 1 -8 15 11 14 8 -4
-12 -13 -15 -28 -26 -32 -25 -5 1 -56 -45 -114 -103 -57 -57 -107 -101 -111
-97 -4 4 1 17 12 29 10 13 -32 -26 -94 -87 -62 -60 -110 -115 -108 -122 3 -7
-1 -10 -7 -7 -7 2 -51 -36 -99 -85 -47 -49 -89 -87 -92 -84 -3 4 -6 18 -6 32
0 21 65 90 332 353 296 291 336 328 362 325 16 -1 34 -10 40 -19z m-2128 -106
c-3 -3 0 -12 7 -20 9 -13 9 -14 0 -8 -7 4 -18 16 -23 26 -9 16 -8 18 5 14 9
-4 13 -9 11 -12z m1766 -264 c-12 -12 -24 -19 -28 -15 -4 3 4 15 17 26 31 25
39 17 11 -11z m-622 -1908 c80 -6 251 -17 380 -25 302 -19 401 -27 397 -31
-22 -22 -1340 -81 -1577 -70 -80 3 -311 13 -515 21 -351 15 -671 38 -683 50
-3 3 7 5 21 5 15 0 150 9 299 19 150 11 415 25 588 31 173 6 322 13 330 15 26
7 609 -5 760 -15z"/>
<path d="M5804 7148 l-29 -33 33 29 c30 28 37 36 29 36 -2 0 -16 -15 -33 -32z"/>
<path d="M6990 5413 l-85 -88 88 85 c81 79 92 90 84 90 -1 0 -41 -39 -87 -87z"/>
<path d="M3365 5450 c21 -22 41 -40 44 -40 3 0 -13 18 -34 40 -21 22 -41 40
-44 40 -3 0 13 -18 34 -40z"/>
<path d="M3530 5295 c13 -14 26 -25 28 -25 3 0 -5 11 -18 25 -13 14 -26 25
-28 25 -3 0 5 -11 18 -25z"/>
<path d="M5497 7838 c-42 -40 -77 -77 -77 -83 0 -5 36 26 80 70 74 74 84 85
77 85 -1 0 -37 -33 -80 -72z"/>
<path d="M4033 6659 c-59 -17 -91 -107 -60 -169 20 -39 73 -70 110 -63 36 6
76 29 94 52 24 31 12 28 -21 -5 -29 -29 -41 -34 -80 -34 -33 0 -52 6 -66 20
-40 40 -15 54 85 45 78 -6 105 6 105 48 0 33 -24 78 -50 95 -27 16 -81 22
-117 11z"/>
<path d="M6495 4420 c-3 -5 -2 -10 4 -10 5 0 13 5 16 10 3 6 2 10 -4 10 -5 0
-13 -4 -16 -10z"/>
<path d="M6062 3978 c-61 -62 -109 -114 -106 -117 3 -3 57 48 122 112 64 64
112 117 106 117 -6 0 -61 -50 -122 -112z"/>
<path d="M4558 3199 c-87 -65 -34 -209 77 -209 116 0 167 153 71 211 -42 25
-113 25 -148 -2z"/>
<path d="M5677 3209 c-43 -25 -60 -106 -32 -159 32 -61 130 -81 179 -35 58 53
58 124 0 174 -28 25 -43 31 -82 31 -26 0 -55 -5 -65 -11z"/>
<path d="M6496 6861 c-14 -15 -23 -31 -19 -36 5 -4 3 -5 -3 -2 -6 3 -28 -13
-50 -36 -28 -30 -30 -35 -9 -17 16 14 33 30 37 35 4 6 8 2 8 -9 0 -15 6 -17
30 -14 17 3 30 1 30 -4 0 -13 36 24 43 45 4 9 2 17 -3 17 -6 0 -9 6 -7 13 1 6
-4 11 -11 9 -8 -1 -11 2 -8 7 15 23 -13 18 -38 -8z m21 -47 c-3 -3 -12 -4 -19
-1 -8 3 -5 6 6 6 11 1 17 -2 13 -5z"/>
<path d="M6480 6740 c0 -5 5 -10 11 -10 5 0 7 5 4 10 -3 6 -8 10 -11 10 -2 0
-4 -4 -4 -10z"/>
<path d="M6193 6659 c-38 -11 -73 -63 -73 -108 0 -60 49 -122 95 -120 13 0 9
4 -12 10 -30 9 -63 42 -63 63 0 5 3 7 6 4 3 -4 18 -3 32 1 15 4 53 5 84 1 36
-4 62 -2 69 4 7 8 8 5 4 -9 -6 -16 -5 -17 4 -5 6 8 11 31 11 51 0 44 -30 86
-76 105 -37 16 -37 16 -81 3z"/>
<path d="M6309 6463 c-13 -16 -12 -17 4 -4 9 7 17 15 17 17 0 8 -8 3 -21 -13z"/>
<path d="M6248 6433 c7 -3 16 -2 19 1 4 3 -2 6 -13 5 -11 0 -14 -3 -6 -6z"/>
<path d="M3441 6064 c-12 -15 -21 -37 -21 -49 0 -37 37 -75 74 -75 69 0 103
87 50 129 -37 29 -78 27 -103 -5z"/>
<path d="M6838 6073 c-25 -29 -29 -52 -14 -87 25 -59 96 -65 131 -12 21 32 12
80 -18 101 -29 20 -80 19 -99 -2z"/>
<path d="M3850 5892 c0 -5 7 -13 16 -16 10 -4 14 -1 12 6 -5 15 -28 23 -28 10z"/>
<path d="M6050 5380 c-25 -25 -26 -81 -2 -103 9 -8 30 -20 45 -26 75 -29 134
79 71 128 -34 27 -88 27 -114 1z"/>
<path d="M4219 5381 c-30 -24 -30 -84 0 -114 26 -27 83 -28 111 -2 26 24 26
75 -1 109 -25 32 -75 35 -110 7z"/>
<path d="M3167 4932 c-15 -9 -34 -35 -44 -60 -42 -110 65 -210 174 -162 48 21
73 61 73 117 -1 47 -18 78 -56 104 -36 24 -109 25 -147 1z"/>
<path d="M7125 4953 c-71 -17 -118 -99 -96 -166 19 -57 62 -87 124 -87 30 0
60 7 71 15 82 62 73 185 -17 226 -43 19 -48 20 -82 12z"/>
<path d="M3980 4321 c0 -13 40 -51 55 -51 12 0 45 -36 39 -43 -3 -2 5 -7 17
-10 17 -5 13 4 -21 38 -24 24 -48 43 -54 42 -5 -1 -10 4 -11 12 0 16 -25 28
-25 12z"/>
<path d="M4450 3426 c0 -2 8 -10 18 -17 15 -13 16 -12 3 4 -13 16 -21 21 -21
13z"/>
<path d="M6435 3950 c-3 -5 -1 -10 4 -10 6 0 11 5 11 10 0 6 -2 10 -4 10 -3 0
-8 -4 -11 -10z"/>
<path d="M6742 3711 c-11 -7 -11 -9 2 -14 10 -4 16 -1 16 8 0 17 -1 17 -18 6z"/>
<path d="M6659 3633 l-24 -28 28 24 c15 14 27 26 27 28 0 8 -8 1 -31 -24z"/>
</g>
</svg>
